<svg width="40" height="40" fill="none" xmlns="http://www.w3.org/2000/svg" data-v-5ebf490a="" class=""><path d="M13.969 24.728l3.785-6.554a1 1 0 00-.866-1.5H9.316" fill="#fff" stroke="#fff" data-v-5ebf490a=""></path><path d="M9.316 16.674l3.787-6.556a1 1 0 011.732 0l3.786 6.556M4.652 8.619L9.316.564l4.652 8.055H4.652zM4.652 8.619l4.664 8.054 4.652-8.054H4.652z" fill="#fff" stroke="#fff" data-v-5ebf490a=""></path><path d="M9.316 16.674l4.653-8.055 4.652 8.055H9.316zM13.969 24.728h9.304l-4.652-8.054-4.652 8.054z" fill="#fff" stroke="#fff" data-v-5ebf490a=""></path><path d="M13.969 24.728l-4.653-8.054h9.305l-4.652 8.054z" fill="#fff" stroke="#fff" data-v-5ebf490a=""></path><path d="M13.969 24.728H4.652l4.664-8.054 4.652 8.054zM20.941 28.756h4.664l-2.332-4.028-2.332 4.028z" fill="#fff" stroke="#fff" data-v-5ebf490a=""></path><path d="M20.941 28.755h4.664l-2.332 4.028-2.332-4.028zM27.926 32.783l-2.32-4.028-2.333 4.028h4.653z" fill="#fff" stroke="#fff" data-v-5ebf490a=""></path><path d="M18.621 32.783l2.32-4.028 2.332 4.028h-4.652z" fill="#fff" stroke="#fff" data-v-5ebf490a=""></path><path d="M20.941 28.756H16.29l-2.32-4.028h9.304l-2.332 4.028z" fill="#fff" stroke="#fff" data-v-5ebf490a=""></path><path d="M18.621 32.783l2.32-4.028H16.29l2.332 4.028zM6.985 28.756H2.333l2.32-4.028 2.332 4.028z" fill="#fff" stroke="#fff" data-v-5ebf490a=""></path><path d="M6.985 28.755H2.333l2.32 4.028 2.332-4.028zM0 32.783l2.332-4.028 2.32 4.028H0z" fill="#fff" stroke="#fff" data-v-5ebf490a=""></path><path d="M9.316 32.783l-2.332-4.028-2.332 4.028h4.664zM9.317 32.783l4.653-8.055H9.317l-2.332 4.028 2.332 4.027z" fill="#fff" stroke="#fff" data-v-5ebf490a=""></path><path d="M6.984 28.756l2.332-4.028H4.652l2.332 4.028z" fill="#fff" stroke="#fff" data-v-5ebf490a=""></path></svg>